<svg width="59" height="76" viewBox="0 0 59 76" fill="none" xmlns="http://www.w3.org/2000/svg">
<g clip-path="url(#clip0_1_247)" filter="url(#filter0_d_1_247)">
<path d="M46.5 0H12.5C10.2457 0 8.08365 0.895533 6.48959 2.48959C4.89553 4.08365 4 6.24566 4 8.5L4 59.5C4 61.7543 4.89553 63.9163 6.48959 65.5104C8.08365 67.1045 10.2457 68 12.5 68H46.5C48.7543 68 50.9163 67.1045 52.5104 65.5104C54.1045 63.9163 55 61.7543 55 59.5V8.5C55 6.24566 54.1045 4.08365 52.5104 2.48959C50.9163 0.895533 48.7543 0 46.5 0V0ZM31.625 46.75H14.625C14.0614 46.75 13.5209 46.5261 13.1224 46.1276C12.7239 45.7291 12.5 45.1886 12.5 44.625C12.5 44.0614 12.7239 43.5209 13.1224 43.1224C13.5209 42.7239 14.0614 42.5 14.625 42.5H31.625C32.1886 42.5 32.7291 42.7239 33.1276 43.1224C33.5261 43.5209 33.75 44.0614 33.75 44.625C33.75 45.1886 33.5261 45.7291 33.1276 46.1276C32.7291 46.5261 32.1886 46.75 31.625 46.75ZM44.375 34H14.625C14.0614 34 13.5209 33.7761 13.1224 33.3776C12.7239 32.9791 12.5 32.4386 12.5 31.875C12.5 31.3114 12.7239 30.7709 13.1224 30.3724C13.5209 29.9739 14.0614 29.75 14.625 29.75H44.375C44.9386 29.75 45.4791 29.9739 45.8776 30.3724C46.2761 30.7709 46.5 31.3114 46.5 31.875C46.5 32.4386 46.2761 32.9791 45.8776 33.3776C45.4791 33.7761 44.9386 34 44.375 34ZM44.375 21.25H14.625C14.0614 21.25 13.5209 21.0261 13.1224 20.6276C12.7239 20.2291 12.5 19.6886 12.5 19.125C12.5 18.5614 12.7239 18.0209 13.1224 17.6224C13.5209 17.2239 14.0614 17 14.625 17H44.375C44.9386 17 45.4791 17.2239 45.8776 17.6224C46.2761 18.0209 46.5 18.5614 46.5 19.125C46.5 19.6886 46.2761 20.2291 45.8776 20.6276C45.4791 21.0261 44.9386 21.25 44.375 21.25Z" fill="#A68F4B"/>
</g>
<defs>
<filter id="filter0_d_1_247" x="0" y="0" width="59" height="76" filterUnits="userSpaceOnUse" color-interpolation-filters="sRGB">
<feFlood flood-opacity="0" result="BackgroundImageFix"/>
<feColorMatrix in="SourceAlpha" type="matrix" values="0 0 0 0 0 0 0 0 0 0 0 0 0 0 0 0 0 0 127 0" result="hardAlpha"/>
<feOffset dy="4"/>
<feGaussianBlur stdDeviation="2"/>
<feComposite in2="hardAlpha" operator="out"/>
<feColorMatrix type="matrix" values="0 0 0 0 0 0 0 0 0 0 0 0 0 0 0 0 0 0 0.25 0"/>
<feBlend mode="normal" in2="BackgroundImageFix" result="effect1_dropShadow_1_247"/>
<feBlend mode="normal" in="SourceGraphic" in2="effect1_dropShadow_1_247" result="shape"/>
</filter>
<clipPath id="clip0_1_247">
<rect width="51" height="68" fill="white" transform="translate(4)"/>
</clipPath>
</defs>
</svg>
